<svg width="122" height="383" viewBox="0 0 122 383" fill="none" xmlns="http://www.w3.org/2000/svg">
<path d="M73.6931 45.1743C74.6368 48.2004 75.8303 51.0427 77.298 53.7746C77.4106 53.9843 77.3085 54.3091 77.3063 54.5805C77.0482 54.4665 76.6608 54.4235 76.553 54.2273C75.8084 52.8721 75.0241 51.5251 74.4389 50.0992C73.4372 47.6583 72.5617 45.1652 71.6578 42.6851C71.4807 42.1992 71.4157 41.6725 71.2982 41.1649C71.1808 40.6582 70.9431 40.5512 70.6292 41.0104C69.3858 42.8294 67.9563 44.5615 67.0062 46.524C66.5108 47.5473 66.8296 48.984 66.8538 50.2325C66.8801 51.5873 66.954 52.9438 67.0755 54.2934C67.2166 55.8599 67.5292 57.3992 68.4164 58.7376C68.6892 59.1491 69.0677 59.5908 69.5021 59.7802C74.5498 61.9814 79.0383 65.2128 83.9682 67.6069C86.8588 69.0107 90.0162 69.86 92.9412 71.2026C94.2636 71.8096 95.5372 72.8369 96.4292 73.986C97.5786 75.4667 98.5379 77.1823 99.1829 78.9417C99.8597 80.7878 100.41 82.8109 100.378 84.746C100.35 86.4355 100.883 87.9784 100.923 89.6072C100.945 90.5092 100.927 91.4122 100.927 92.3148C100.927 93.959 100.891 95.6041 100.938 97.2469C100.974 98.4698 101.113 99.6899 101.218 100.91C101.233 101.077 101.362 101.237 101.366 101.401C101.448 105.449 101.831 109.521 101.516 113.538C101.122 118.566 100.839 123.582 100.944 128.618C100.988 130.709 101.191 132.799 101.4 134.882C101.441 135.286 101.796 135.696 102.09 136.03C102.98 137.039 103.904 138.019 104.826 138.998C105.938 140.18 106.307 141.64 106.253 143.183C106.189 145.015 105.894 146.841 105.859 148.673C105.84 149.717 106.213 150.763 106.277 151.816C106.357 153.129 106.332 154.452 106.292 155.768C106.261 156.773 106.213 157.789 106.034 158.776C105.617 161.075 105.153 163.369 104.637 165.649C104.194 167.605 103.654 169.541 103.151 171.484C103.1 171.682 103.027 171.88 102.928 172.058C102.438 172.94 102.528 173.732 102.872 174.716C103.577 176.732 103.265 177.767 101.209 178.393C100.691 178.551 100.375 178.797 100.636 179.582C101.843 183.205 102.947 186.863 104.039 190.524C105.329 194.85 106.511 199.21 107.857 203.519C108.561 205.772 109.531 207.941 110.356 210.157C111.446 213.081 112.565 215.996 113.577 218.947C115.193 223.658 116.709 228.403 118.318 233.116C118.748 234.377 119.465 235.543 119.864 236.811C120.403 238.526 120.782 240.294 121.19 242.048C121.388 242.902 121.48 243.78 121.648 244.642C121.872 245.79 120.944 247.817 119.864 248.328C118.655 248.901 117.651 250.022 116.127 249.787C115.854 249.745 115.589 249.654 115.318 249.592C114.277 249.353 113.368 249.151 112.315 249.959C111.092 250.897 109.497 250.452 108.029 250.337C106.697 250.233 105.355 250.261 104.018 250.24C103.883 250.238 103.691 250.254 103.621 250.34C101.962 252.372 99.9412 251.695 97.9201 251.135C97.2151 250.94 96.491 250.739 95.7677 250.704C94.9633 250.665 94.1712 250.451 93.5104 251.447C92.4979 252.973 90.748 252.828 89.1818 252.602C87.2358 252.321 85.6043 251.231 83.8992 250.306C82.5502 249.575 80.9966 249.043 79.5073 250.033C78.7907 250.509 78.304 251.368 77.5578 251.753C76.4085 252.347 75.1411 252.735 73.8931 253.107C73.1749 253.322 72.8012 253.584 72.8382 254.416C72.9064 255.946 72.8775 257.481 72.8475 259.014C72.8362 259.59 72.6735 260.162 72.641 260.74C72.4792 263.607 72.5273 266.501 72.1449 269.337C71.5735 273.576 70.7539 277.785 69.9472 281.989C69.1984 285.891 68.2674 289.758 67.5345 293.663C67.1096 295.926 66.9876 298.245 66.603 300.517C66.0777 303.62 65.4155 306.7 64.8443 309.795C64.5125 311.594 64.2278 313.402 63.9517 315.21C63.706 316.82 63.3417 318.434 63.3232 320.05C63.3044 321.69 63.6437 323.335 63.8286 324.977C63.8763 325.401 63.9275 325.824 63.9864 326.247C64.1443 327.379 64.5534 328.215 65.6534 328.9C66.9016 329.678 66.5447 331.167 66.2061 332.366C65.8985 333.455 65.8632 334.402 66.2974 335.489C67.8628 339.405 65.6992 344.458 62.5282 345.673C60.4778 346.459 58.4537 347.336 56.3553 347.964C55.4879 348.223 54.4567 347.939 53.5002 347.897C53.3289 347.889 53.0692 347.776 53.007 347.847C52.8832 347.99 52.8105 348.228 52.8176 348.424C52.8757 350.038 52.9818 351.65 53.026 353.264C53.1175 356.607 53.1687 359.951 53.2616 363.294C53.2855 364.155 53.3604 365.019 53.4956 365.869C53.5578 366.26 53.8219 366.619 53.9945 366.992C54.1932 366.73 54.3531 366.421 54.5999 366.216C54.9477 365.928 55.3599 365.718 55.7446 365.474C55.954 365.856 56.2802 366.217 56.3513 366.622C56.5854 367.957 56.1114 369.209 55.2908 370.16C54.2009 371.423 54.623 372.76 54.6641 374.118C54.7323 376.372 54.8877 378.635 54.7551 380.879C54.6996 381.818 53.7237 382.366 52.7014 382.375C50.0284 382.396 47.3489 382.496 44.6835 382.352C41.5695 382.183 38.4655 381.811 35.3615 381.485C33.0682 381.244 32.165 380.521 31.8455 379.113C31.5068 377.621 31.8989 376.309 32.4751 374.983C33.0759 373.601 33.7024 372.222 34.1766 370.796C34.3431 370.295 34.2667 369.553 33.9999 369.097C32.887 367.197 33.1366 366.171 35.0477 365.236C35.3049 365.11 35.5663 364.795 35.638 364.519C36.3349 361.837 36.9538 359.134 37.6729 356.458C38.1908 354.53 38.6924 352.608 38.5414 350.595C38.4555 349.45 38.6907 348.379 39.339 347.477C40.3491 346.073 40.5549 344.423 40.7284 342.834C40.9405 340.892 40.9223 338.896 40.7414 336.948C40.5306 334.676 40.1168 332.414 39.6429 330.179C39.148 327.846 38.5688 325.521 37.8611 323.244C36.8323 319.933 35.5438 316.701 34.5728 313.375C33.612 310.085 32.837 306.734 32.1104 303.382C31.3546 299.895 30.6629 296.389 30.1171 292.865C29.7333 290.387 29.6093 287.865 29.4263 285.359C29.2388 282.791 29.0992 280.219 28.9773 277.646C28.8081 274.075 28.8035 270.491 28.494 266.933C28.1089 262.505 27.7329 258.085 27.8586 253.636C27.8669 253.344 27.774 252.982 27.9118 252.773C28.3146 252.164 27.885 252.118 27.4848 252.015C26.0422 251.644 24.5797 251.334 23.1653 250.876C22.4902 250.657 21.9406 250.063 21.2686 249.82C20.8562 249.67 20.1869 249.686 19.8614 249.931C18.2841 251.117 16.5623 251.989 14.6585 252.442C13.0404 252.828 11.7333 251.988 10.5347 251.05C9.18056 249.989 9.0562 250.012 8.02121 251.429C7.1019 252.686 4.76627 253.354 2.88718 253.049C0.640556 252.685 0.500448 251.025 0.259167 249.412C0.0648825 248.113 -0.07702 246.766 0.045915 245.468C0.306218 242.719 0.675133 239.974 1.14319 237.253C2.00611 232.235 3.7712 227.465 5.36035 222.65C6.47992 219.258 7.69732 215.895 8.72476 212.476C10.0551 208.048 11.2711 203.586 12.477 199.122C13.4069 195.68 14.2882 192.224 15.1054 188.754C15.4876 187.131 15.4738 185.552 14.7752 183.889C13.9928 182.026 13.6038 179.984 13.175 177.992C12.7172 175.866 12.3672 173.713 12.0551 171.559C11.7689 169.584 11.521 167.597 11.3926 165.607C11.2371 163.196 11.0848 160.77 11.1801 158.36C11.3707 153.538 12.3358 148.86 14.1266 144.351C15.4299 141.07 16.6056 137.739 17.8326 134.427C18.6548 132.209 19.6002 130.025 20.2491 127.756C20.9939 125.153 21.5728 122.491 22.0348 119.822C22.4122 117.642 22.6264 115.418 22.7068 113.206C22.8177 110.157 23.0357 107.063 22.6522 104.059C22.2464 100.879 22.0218 97.7091 21.7841 94.5214C21.5527 91.4176 22.0047 88.4767 22.6984 85.4946C23.1611 83.5057 23.3374 81.4494 23.623 79.4206C23.9793 76.8903 24.5417 74.4987 26.4817 72.577C27.7504 71.3203 28.7409 69.7967 30.4836 69.0734C33.2076 67.9428 35.895 66.7217 38.6353 65.633C41.3828 64.5415 44.2179 63.6725 46.7215 62.0213C47.3655 61.5965 48.1677 61.3984 48.9129 61.1414C51.2023 60.3517 53.0434 58.9505 54.3783 56.9605C54.7807 56.3606 54.9638 55.5304 55.0078 54.7914C55.1008 53.227 55.0124 51.6526 55.0483 50.0834C55.0619 49.488 55.0344 48.7746 55.3386 48.3271C55.977 47.3878 55.4612 46.8353 54.836 46.3919C52.4968 44.7329 51.0639 42.3433 49.4415 40.074C47.3462 37.1432 46.6121 33.7421 45.6582 30.3941C45.4836 29.7815 45.0683 29.218 44.6758 28.6984C44.5585 28.5431 44.1413 28.6137 43.8616 28.5808C43.8421 28.834 43.7352 29.1221 43.8199 29.3337C44.0614 29.9376 44.2558 30.636 44.6938 31.0711C45.8609 32.2305 45.893 33.7182 46.1256 35.165C46.1982 35.6165 46.3104 36.0652 46.3407 36.5194C46.4093 37.5472 46.3414 38.525 45.4344 39.2609C44.6219 39.9201 44.6031 40.7961 45.0366 41.6649C45.1614 41.915 45.532 42.0428 45.7899 42.2266C45.976 41.9331 46.2764 41.6566 46.3233 41.3423C46.41 40.762 46.337 40.1591 46.3558 39.5665C46.3606 39.4135 46.4597 39.2634 46.5155 39.112C46.663 39.2039 46.8479 39.2654 46.9516 39.3928C47.3687 39.9057 47.4801 42.2308 46.7233 42.602C46.218 42.8498 45.5338 43.1576 45.0913 42.9964C44.5979 42.8166 44.0181 42.1721 43.9501 41.6663C43.7721 40.3431 43.6795 38.9402 45.0667 38.0299C45.2674 37.8982 45.4549 37.5473 45.4365 37.3145C45.33 35.9637 45.3404 34.5629 44.9512 33.2887C44.6688 32.364 43.734 31.6583 43.2682 30.7626C42.8939 30.0431 42.6277 29.1906 42.6003 28.3873C42.5638 27.3206 43.4316 26.8666 44.4263 27.3017C45.0454 27.5724 45.1223 27.5385 45.044 26.7866C44.7413 23.8838 44.538 20.9695 44.3516 18.0561C44.1861 15.4713 44.8388 13.0116 45.6176 10.5758C45.8389 9.88354 45.9424 9.15452 46.1315 8.45082C46.2469 8.02137 46.3567 7.56834 46.5829 7.19465C47.4092 5.82955 48.1631 5.83712 49.0449 7.22099C49.7333 8.30144 50.3892 9.40409 51.0209 10.5187C51.8026 11.8981 51.5624 13.429 50.6091 14.7647C50.1002 15.4776 49.4904 16.3855 49.5317 17.1737C49.6613 19.6466 48.8875 21.8173 47.8282 23.9517C47.7823 24.0442 47.6935 24.1337 47.6911 24.2263C47.6761 24.8127 47.6797 25.3996 47.6772 25.9864C48.1995 25.5275 48.9411 25.1699 49.2083 24.5932C50.8727 21.001 55.131 20.66 57.5969 23.103C57.7658 23.2704 57.8677 23.5065 57.995 23.7142C58.5877 24.6807 59.1009 25.809 60.5655 24.8828C60.6715 24.8158 60.8575 24.8655 61.0054 24.8753C62.4881 24.9744 63.0734 24.7797 64.0397 23.7758C66.6795 21.0332 70.037 21.6292 72.1628 24.6299C72.6828 25.3639 73.2356 25.1787 73.7337 24.9569C74.4054 24.6578 74.3699 23.9454 73.9511 23.5036C72.9988 22.499 72.2016 21.3353 70.7536 20.8448C68.4518 20.065 67.0871 17.9596 67.0699 15.4434C67.0653 14.7731 67.1392 14.2812 66.1248 14.7127C65.6745 14.9042 64.9252 14.451 64.3307 14.2374C62.3279 13.518 60.3361 12.7683 58.3313 12.0549C58.1906 12.0049 57.9778 12.1572 57.7985 12.2155C57.9034 12.3564 57.9786 12.5464 58.118 12.6302C59.007 13.165 59.9398 13.6333 60.793 14.2184C61.1005 14.4293 61.2276 14.9025 61.437 15.2559C61.0042 15.2291 60.4914 15.3434 60.1524 15.1514C58.5822 14.2621 57.0789 13.2554 55.513 12.3582C54.7738 11.9346 53.8111 11.8191 53.1939 11.2833C52.3495 10.5503 51.6955 9.57981 51.039 8.65509C50.4587 7.8377 50.0206 6.92077 49.4596 6.08824C48.3855 4.49421 49.3362 3.70021 50.5502 3.07438C51.222 2.72803 51.9087 2.41056 52.5839 2.07071C53.4312 1.64428 54.2439 1.26276 55.2678 1.24651C56.3297 1.22965 57.3868 0.851723 58.4438 0.621487C58.678 0.570476 58.8982 0.435771 59.1327 0.409096C60.5548 0.24737 61.9803 -0.0133355 63.4023 0.000531424C64.3079 0.00936745 65.2201 0.401947 66.1094 0.684858C66.8266 0.913019 67.4956 1.29986 68.2181 1.50222C70.1829 2.05257 71.6064 3.43791 73.1637 4.61448C73.7975 5.09332 74.3865 5.63652 74.9599 6.18779C75.2643 6.48045 75.5434 6.82754 75.7283 7.20204C75.8029 7.35308 75.6323 7.67074 75.495 7.85413C75.4502 7.91397 75.1252 7.8358 74.9845 7.73915C74.6033 7.47716 74.2301 7.19485 73.894 6.87794C73.2734 6.29271 72.6963 5.66091 72.0674 5.08526C71.9092 4.94049 71.6232 4.93503 71.3959 4.86556C71.4621 5.0708 71.4767 5.31703 71.6025 5.47495C72.8494 7.04049 74.0408 8.65955 75.3959 10.1272C76.7331 11.5756 77.3963 13.2004 77.5574 15.1462C77.7659 17.6631 77.8554 20.2425 78.518 22.6519C79.0055 24.4248 80.2211 26.0444 81.3085 27.5951C82.7762 29.6883 84.4488 31.6372 85.9913 33.6798C86.2569 34.0315 86.3125 34.5412 86.4651 34.9779C86.0278 34.776 85.4737 34.6803 85.1748 34.3525C84.2115 33.2965 83.2661 32.2075 82.4558 31.0334C81.4123 29.5214 80.5183 27.9071 79.5285 26.3569C79.3684 26.1062 79.0456 25.959 78.7981 25.7639C78.7553 26.0301 78.6207 26.3202 78.6833 26.5589C79.7486 30.6232 81.1286 34.5885 83.8155 37.8761C85.2114 39.584 87.0498 40.9298 88.6746 42.4538C89.0562 42.8118 89.4087 43.2096 89.7177 43.6307C89.8078 43.7534 89.7406 44.0377 89.6634 44.2115C89.6361 44.273 89.3454 44.2751 89.207 44.2216C86.8287 43.302 84.28 42.7805 82.327 40.9199C80.11 38.8079 79.1753 36.0405 78.2282 33.2844C77.7901 32.0096 77.6823 30.6244 77.2873 29.331C77.03 28.4884 76.5368 27.715 76.1203 26.9258C76.0513 26.7951 75.8339 26.7425 75.685 26.6538C75.6337 26.8096 75.5268 26.9707 75.5411 27.1202C75.5883 27.6112 75.7135 28.096 75.7416 28.587C75.7602 28.9111 75.6448 29.2407 75.625 29.57C75.6115 29.795 75.6443 30.0266 75.6897 30.2485C75.7016 30.3069 75.8371 30.3402 75.9159 30.385C76.0103 30.2016 76.1211 30.0244 76.1942 29.8329C76.2555 29.672 76.2729 29.4945 76.3097 29.3243C76.4214 29.5 76.5801 29.6629 76.6321 29.8547C76.6882 30.062 76.7314 30.3504 76.6312 30.5102C75.7327 31.942 76.7542 33.0777 77.2515 34.2368C78.5804 37.334 80.6046 39.9867 82.8203 42.5014C83.7751 43.5851 84.7351 44.666 85.6379 45.792C85.8177 46.0163 85.7482 46.4401 85.7936 46.772C85.5093 46.6466 85.1305 46.5982 84.9552 46.3839C83.0578 44.0636 81.2183 41.6958 79.3098 39.3848C77.7868 37.5407 76.7196 35.4484 75.745 33.2925C75.7036 33.2009 75.5355 33.1665 75.4264 33.1054C75.427 33.2566 75.3796 33.4287 75.4353 33.5558C76.3704 35.6905 77.2513 37.8528 78.2859 39.9388C79.0374 41.4541 80.0029 42.8629 80.8532 44.3306C80.9491 44.4961 80.9168 44.7357 80.944 44.9409C80.7602 44.8759 80.5205 44.8638 80.4011 44.7379C78.7449 42.9904 77.587 40.9208 76.6575 38.727C76.0696 37.3394 75.6156 35.8956 75.0734 34.4878C74.9979 34.2918 74.7609 34.1579 74.5986 33.9953C74.4638 34.1854 74.2171 34.3727 74.2122 34.5661C74.1769 35.9703 74.1557 37.3794 75.3785 38.4193C75.6124 38.6182 75.8528 38.9024 75.9213 39.1877C76.4678 41.4632 78.198 43.0108 79.4325 44.8492C80.6786 46.7046 82.1653 48.3992 83.5519 50.1601C84.1041 50.8614 84.6661 51.5554 85.2335 52.2446C85.3975 52.4438 85.6677 52.5854 85.759 52.8069C85.8596 53.0511 85.8104 53.3568 85.8264 53.6357C85.5684 53.5584 85.2116 53.5634 85.0676 53.391C83.5769 51.608 82.0761 49.8302 80.6669 47.9834C79.2158 46.0816 77.8801 44.0923 76.4471 42.1762C76.2598 41.9258 75.7021 41.6814 75.4757 41.7844C74.9435 42.0265 73.7653 42.0349 74.5913 43.1882C74.646 43.2647 74.6265 43.3948 74.6396 43.5003C74.6698 43.743 74.6987 43.986 74.7282 44.2288C74.4759 44.0448 74.1113 43.915 73.9912 43.6671C73.4986 42.6506 73.079 41.5987 72.6384 40.5574C72.6117 40.4945 72.6664 40.3843 72.6299 40.3405C72.3448 39.9991 72.0467 39.6685 71.7525 39.3345C71.7937 39.7864 71.7422 40.272 71.8927 40.6841C72.4376 42.1757 73.0503 43.6425 73.6931 45.1743ZM47.6847 303.517C47.6105 302.62 47.555 301.722 47.4585 300.828C47.1712 298.169 46.7151 295.518 46.6124 292.852C46.5025 289.998 46.6674 287.129 46.8181 284.272C46.8824 283.053 47.2163 281.849 47.4252 280.639C47.7357 278.839 48.065 277.042 48.344 275.237C48.4807 274.353 48.527 273.455 48.6056 272.562C48.7476 270.952 48.9999 269.339 48.99 267.729C48.9792 265.96 48.6376 264.195 48.5953 262.424C48.5242 259.447 48.5758 256.467 48.5758 253.488C48.5758 253.229 48.6615 252.927 48.5585 252.718C48.3214 252.237 48.0458 251.468 47.6906 251.411C46.6895 251.252 45.5709 251.169 44.6247 251.462C42.7392 252.046 40.9352 252.582 38.8912 252.289C37.4551 252.083 36.0293 252.026 34.6756 251.406C34.1957 251.186 33.4094 250.996 33.0693 251.232C32.1532 251.868 31.2053 252.025 30.1508 252.043C29.9034 252.047 29.4797 252.374 29.4488 252.595C29.3044 253.63 29.1732 254.683 29.2111 255.724C29.3982 260.861 29.6361 265.996 29.8665 271.131C29.9184 272.288 29.9885 273.445 30.0904 274.598C30.3746 277.813 30.7118 281.024 30.9647 284.242C31.1075 286.059 31.1144 287.887 31.2042 289.71C31.2539 290.718 31.2769 291.736 31.4359 292.73C31.9188 295.747 32.4031 298.765 32.9992 301.761C33.5551 304.554 34.1587 307.345 34.9176 310.088C35.7236 313.001 36.7821 315.844 37.6493 318.741C38.8675 322.812 40.3487 326.812 41.0027 331.037C41.2937 332.917 41.6998 334.787 41.8619 336.678C42.0081 338.383 41.9232 340.112 41.885 341.829C41.8371 343.988 41.43 346.045 40.4024 348.003C39.9339 348.895 39.6805 350.02 39.7099 351.029C39.7726 353.17 39.3551 355.201 38.7718 357.223C38.1128 359.508 37.3894 361.776 36.8086 364.079C36.6891 364.553 36.9017 365.382 37.2605 365.655C38.4724 366.58 39.9179 367.209 41.0885 368.176C42.4847 369.328 43.7444 370.688 44.1712 372.55C44.3376 373.276 44.2998 374.048 44.4424 374.781C44.5022 375.088 44.7893 375.352 44.9731 375.635C45.1344 375.294 45.3913 374.965 45.4386 374.609C45.5667 373.646 45.5763 372.668 45.6866 371.701C45.8551 370.225 46.143 368.758 47.8651 368.323C48.823 368.081 49.8303 368 50.8212 367.933C52.1863 367.842 52.3896 367.693 52.3531 366.355C52.3387 365.828 52.1681 365.306 52.1481 364.779C52.0558 362.35 51.9747 359.921 51.9212 357.492C51.8329 353.481 51.7625 349.471 51.6981 345.46C51.6761 344.088 51.898 342.678 51.6496 341.353C51.2174 339.047 50.5158 336.791 49.9068 334.519C49.7202 333.823 49.3647 333.16 49.2621 332.456C48.8475 329.613 48.4185 326.767 48.154 323.908C47.8965 321.124 47.7558 318.324 47.7034 315.529C47.6297 311.6 47.6848 307.669 47.6847 303.517ZM46.3481 221.87C46.4966 219.337 46.6635 216.805 46.788 214.27C46.8902 212.189 46.9331 210.105 47.0196 208.024C47.077 206.645 47.1049 205.261 47.2514 203.891C47.5841 200.778 48.0667 197.679 48.3262 194.561C48.5336 192.069 48.5095 189.557 48.5738 187.054C48.6563 183.847 48.8194 180.639 48.7776 177.433C48.704 171.784 48.4522 166.138 48.3733 160.489C48.3323 157.556 48.4139 154.614 48.6008 151.686C48.7828 148.836 49.2867 146.005 49.4342 143.154C49.5828 140.282 49.439 137.395 49.4761 134.516C49.5039 132.359 49.649 130.203 49.6561 128.046C49.6572 127.694 49.2137 127.34 48.9758 126.987C48.694 127.296 48.3739 127.581 48.1476 127.926C48.0455 128.082 48.1468 128.361 48.1278 128.582C47.9089 131.122 47.7205 133.666 47.4468 136.2C47.3116 137.452 47.0014 138.684 46.7971 139.93C46.4606 141.981 46.1753 144.041 45.8139 146.088C45.4311 148.256 44.8615 150.399 44.5965 152.58C44.2492 155.438 44.2014 158.333 43.8691 161.194C43.6482 163.096 43.1748 164.972 42.76 166.848C42.7055 167.094 42.3406 167.43 42.0967 167.45C40.5726 167.577 39.0414 167.614 37.5142 167.707C37.0965 167.732 36.6579 167.782 36.2749 167.935C35.3794 168.293 35.1125 167.958 35.2064 167.097C35.238 166.807 35.1712 166.496 35.251 166.224C36.1914 163.018 37.1201 159.809 38.1183 156.622C38.6405 154.954 39.4488 153.365 39.8547 151.675C40.6366 148.42 41.2838 145.128 41.8751 141.832C42.4046 138.88 42.7913 135.903 43.2262 132.934C43.442 131.462 43.6439 129.986 43.7983 128.506C43.8184 128.314 43.4968 127.895 43.3667 127.908C42.494 127.997 41.62 128.133 40.7701 128.347C40.512 128.412 40.2101 128.736 40.129 129.002C39.3556 131.54 38.6623 134.103 37.8743 136.636C36.6799 140.476 35.5301 144.335 34.1742 148.118C32.6374 152.407 30.8579 156.608 29.2549 160.873C28.3376 163.314 27.5844 165.816 26.7069 168.273C26.4548 168.979 26.5832 169.104 27.2555 168.866C27.4195 168.808 27.611 168.817 27.7902 168.813C31.2118 168.737 34.6332 168.618 38.0551 168.605C40.3256 168.596 42.5966 168.739 44.8675 168.81C45.2384 168.821 45.6104 168.799 45.9811 168.814C47.0066 168.855 47.4778 169.325 47.4579 170.347C47.3948 173.579 47.3197 176.81 47.2354 180.042C47.2104 180.999 46.5098 181.717 45.5433 181.702C44.4966 181.685 43.4523 181.52 42.4056 181.502C40.3644 181.468 38.3223 181.492 36.2806 181.492C34.7139 181.492 34.3311 181.831 34.7935 183.278C35.5942 185.784 34.9309 188.239 34.7378 190.702C34.5664 192.887 34.1038 195.049 33.8972 197.233C33.7675 198.605 33.9295 200.002 33.8589 201.383C33.7689 203.141 33.5784 204.894 33.4268 206.649C33.2815 208.33 33.1487 210.013 32.9778 211.692C32.6959 214.462 32.3532 217.226 32.1041 220C31.9576 221.631 31.9279 223.273 31.8709 224.911C31.7143 229.409 31.5411 233.907 31.4396 238.407C31.406 239.894 31.5368 241.388 31.6563 242.873C31.7502 244.04 31.7607 245.261 32.1391 246.343C32.5648 247.56 33.0778 249.158 34.0493 249.696C37.1802 251.429 40.573 251.732 44.0053 250.276C44.6391 250.007 44.5674 249.668 44.526 249.189C44.3802 247.503 44.1379 245.814 44.1512 244.128C44.1662 242.224 44.4189 240.321 44.5654 238.418C44.6429 237.411 44.6905 236.401 44.7934 235.396C45.0771 232.626 45.3818 229.858 45.6802 227.09C45.8638 225.387 46.0511 223.684 46.3481 221.87ZM69.7389 204.295C69.5161 207.28 69.2648 210.263 69.0805 213.25C68.9545 215.292 68.8362 217.341 68.8632 219.385C68.9618 226.829 68.7169 234.258 68.2243 241.687C68.0488 244.334 67.9188 246.959 67.3108 249.55C67.1688 250.155 67.3142 250.659 68.0012 251.173C69.9951 252.664 72.188 251.923 74.2106 251.764C75.5607 251.658 76.9559 250.625 78.0898 249.709C79.1726 248.834 80.2468 248.231 81.6162 248.247C82.44 248.256 82.5173 247.831 82.4062 247.201C82.1195 245.578 81.6869 243.964 81.5779 242.328C81.3879 239.475 81.3493 236.609 81.3389 233.748C81.3314 231.666 81.5349 229.584 81.5295 227.502C81.5229 224.937 81.3954 222.373 81.3234 219.809C81.247 217.084 81.1411 214.359 81.1149 211.634C81.1027 210.368 81.3122 209.1 81.3068 207.834C81.3001 206.27 81.1738 204.707 81.101 203.144C81.0942 202.996 81.1126 202.846 81.0983 202.699C80.8037 199.671 80.4792 196.645 80.22 193.614C80.0837 192.019 80.0521 190.414 79.9884 188.814C79.9056 186.732 79.7892 184.65 79.7736 182.567C79.7406 178.156 79.7635 173.744 79.7635 169.333C79.7635 165.317 79.8124 161.3 79.7437 157.285C79.7073 155.157 79.414 153.035 79.3304 150.907C79.2079 147.789 79.2118 144.665 79.065 141.548C79.029 140.785 78.7234 139.983 78.357 139.297C77.4776 137.651 76.4815 136.068 75.5499 134.449C75.3695 134.136 75.2685 133.777 75.1308 133.439C74.8929 133.792 74.611 134.123 74.4247 134.501C73.6062 136.163 72.834 137.848 72.0091 139.506C71.207 141.119 70.2639 142.659 70.6081 144.612C70.8037 145.722 70.8654 146.872 70.8375 148.001C70.726 152.5 70.5471 156.997 70.4128 161.496C70.3759 162.731 70.4648 163.971 70.39 165.203C70.3236 166.295 69.9917 167.378 69.9802 168.467C69.8745 178.445 69.811 188.423 69.7408 198.401C69.7275 200.292 69.7389 202.182 69.7389 204.295ZM62.3875 134.663C63.1831 134.165 63.9965 133.692 64.7637 133.154C65.0014 132.987 65.2626 132.64 65.2586 132.379C65.2374 131.001 65.1543 129.622 65.0402 128.247C65.0228 128.038 64.7519 127.705 64.5625 127.678C63.22 127.486 61.8711 127.319 60.5186 127.22C58.9195 127.103 57.3152 127.039 55.7121 127.008C55.4152 127.002 54.949 127.187 54.8484 127.412C54.6541 127.847 54.5758 128.379 54.605 128.861C54.8024 132.123 53.9436 135.283 53.7096 138.501C53.5122 141.216 53.3178 143.936 53.2705 146.656C53.1472 153.741 53.0678 160.827 53.0464 167.913C53.035 171.699 53.2257 175.486 53.2381 179.274C53.2466 181.874 53.1228 184.476 53.027 187.076C52.8954 190.647 52.7351 194.218 52.5853 197.789C52.5134 199.5 52.442 201.212 52.3619 202.923C52.2171 206.012 52.0708 209.101 51.9148 212.19C51.8564 213.346 51.7921 214.503 51.6901 215.656C51.4059 218.87 51.0995 222.082 50.804 225.295C50.6529 226.938 50.5177 228.583 50.3555 230.225C50.0673 233.143 49.6624 236.053 49.5021 238.977C49.3925 240.975 49.5528 242.995 49.7125 244.997C49.8124 246.249 50.0642 247.502 50.3875 248.717C50.5528 249.339 50.9215 250.005 51.8476 249.753C54.0166 249.163 56.1969 248.612 58.3597 248C59.2575 247.746 60.0716 247.494 60.2028 246.221C60.4141 244.171 60.939 242.156 61.265 240.115C61.7441 237.118 62.282 234.122 62.5706 231.103C62.7755 228.96 62.5857 226.782 62.6202 224.62C62.6386 223.464 62.829 222.308 62.8178 221.154C62.7973 219.046 62.6122 216.939 62.6246 214.832C62.6553 209.623 62.7464 204.415 62.8391 199.207C62.8765 197.112 62.9596 195.017 63.0614 192.924C63.1865 190.352 63.3847 187.784 63.4941 185.212C63.6697 181.087 63.8278 176.96 63.9356 172.832C63.9978 170.449 63.9477 168.063 63.9463 165.678C63.946 165.124 63.9379 164.569 63.9337 164.015C63.9249 162.846 63.9121 161.677 63.9085 160.508C63.9044 159.148 64.0712 157.762 63.8692 156.432C63.5896 154.592 63.1761 152.797 63.8618 150.963C63.9375 150.76 63.7593 150.463 63.6988 150.21C63.4933 150.284 63.2516 150.311 63.0882 150.439C61.8901 151.374 60.5059 151.561 59.0552 151.455C57.5053 151.341 56.7942 150.566 56.828 148.973C56.8533 147.78 56.9988 146.589 57.0337 145.395C57.089 143.507 57.8123 141.821 58.4807 140.098C59.2997 137.987 60.8986 136.467 62.3875 134.663ZM57.7094 339.557C57.7836 339.327 57.9606 339.076 57.9155 338.873C57.6149 337.52 58.4887 336.908 59.4473 336.328C59.6581 336.2 59.8548 336.046 60.0442 335.887C62.366 333.945 62.2185 331.002 63.0502 328.457C63.094 328.323 63.0726 328.16 63.0533 328.014C62.7599 325.801 62.3826 323.594 62.1962 321.372C62.0943 320.157 62.2716 318.911 62.3973 317.686C62.586 315.848 62.7548 314.001 63.0849 312.186C63.6842 308.89 64.4512 305.624 65.0442 302.327C65.5687 299.411 65.8988 296.46 66.4111 293.542C67.0277 290.029 67.7456 286.534 68.4206 283.031C69.0822 279.598 69.8442 276.179 70.3766 272.726C70.8227 269.831 71.0969 266.902 71.2724 263.977C71.4614 260.826 71.4403 257.663 71.5258 254.505C71.5464 253.746 71.2606 253.335 70.4584 253.343C70.2157 253.346 69.9513 253.317 69.7325 253.221C68.5067 252.684 67.3028 252.097 66.0709 251.576C63.9237 250.666 61.7652 249.783 59.6001 248.918C59.3939 248.835 59.0926 248.906 58.8614 248.984C57.6563 249.387 56.4822 249.905 55.2546 250.213C53.6024 250.628 53.5091 250.572 53.0492 252.179C52.8654 252.822 52.8128 253.522 52.8195 254.195C52.8741 259.689 52.957 265.182 53.0311 270.676C53.0321 270.75 53.0228 270.825 53.0324 270.898C53.4766 274.273 54.0419 277.638 54.3277 281.026C54.5337 283.469 54.3111 285.944 54.3822 288.402C54.4707 291.456 54.6382 294.51 54.8207 297.56C55.0105 300.733 55.3383 303.899 55.4534 307.073C55.5288 309.151 55.3693 311.24 55.2458 313.319C55.1677 314.634 55.0728 315.965 54.791 317.246C54.1391 320.21 53.1443 323.04 51.7812 325.791C50.987 327.394 50.7617 329.361 50.6433 331.187C50.5521 332.595 51.0071 334.042 51.2553 335.466C51.447 336.566 51.6645 337.663 51.9412 338.744C52.0008 338.977 52.5235 339.327 52.5621 339.295C53.4871 338.534 54.8026 338.83 55.4963 339.894C56.0573 340.754 56.7405 341.536 57.3894 342.336C57.4821 342.451 57.687 342.475 57.84 342.541C57.8707 342.368 57.939 342.192 57.9256 342.023C57.8664 341.274 57.7836 340.527 57.7094 339.557ZM89.3426 198.956C89.2684 200.495 89.0732 202.039 89.1471 203.571C89.2698 206.115 89.643 208.647 89.7707 211.191C89.9833 215.426 90.0785 219.666 90.2378 223.904C90.2855 225.171 90.3377 226.442 90.4657 227.703C90.7321 230.326 91.0279 232.946 91.3576 235.562C91.511 236.779 91.7944 237.978 91.9787 239.192C92.2337 240.871 92.4732 242.554 92.6774 244.24C92.858 245.731 92.949 247.234 93.1623 248.72C93.1967 248.96 93.6362 249.263 93.9328 249.325C95.5467 249.661 97.1663 249.996 98.8006 250.198C99.8435 250.327 100.956 251 101.961 249.991C103.187 248.758 104.672 248.455 106.331 248.901C106.517 248.951 106.7 249.012 106.885 249.068C106.844 248.841 106.844 248.597 106.755 248.391C106.386 247.542 105.795 246.738 105.647 245.857C105.363 244.171 104.22 242.593 104.922 240.76C105.001 240.554 104.912 240.261 104.842 240.026C103.691 236.166 102.561 232.3 101.358 228.457C100.845 226.818 100.309 225.224 100.214 223.467C100.125 221.837 99.6544 220.229 99.3698 218.607C99.0357 216.704 98.7251 214.797 98.3967 212.894C98.0567 210.923 97.7027 208.955 97.3641 206.984C97.1496 205.736 97.0126 204.471 96.7334 203.239C96.244 201.078 95.6285 198.946 95.1476 196.784C94.7149 194.838 94.3698 192.872 94.0272 190.908C93.7004 189.035 93.4638 187.145 93.116 185.276C92.9012 184.122 92.6005 182.976 92.2297 181.863C92.1396 181.592 91.5935 181.27 91.3057 181.311C90.7462 181.391 90.2377 181.776 89.6784 181.919C88.5083 182.217 88.6593 182.852 88.8504 183.84C89.2941 186.135 89.5671 188.471 89.7621 190.803C89.8975 192.423 89.8409 194.065 89.7689 195.693C89.7239 196.711 89.4911 197.72 89.3426 198.956ZM26.9672 105.742C26.8488 103.425 26.3438 101.158 26.689 98.7796C27.0879 96.0305 26.8726 93.2157 27.6023 90.4719C28.1439 88.4358 28.4245 86.3388 29.3725 84.4138C30.2388 82.6547 30.25 80.7873 29.9341 78.8805C29.6389 77.0987 29.4313 75.3023 29.1986 73.5105C29.1255 72.9482 29.0956 72.3803 29.046 71.815C28.6604 72.2126 28.2439 72.5849 27.8945 73.012C26.297 74.9647 25.0451 77.0355 24.9234 79.6921C24.852 81.2526 24.3793 82.793 24.1127 84.3468C23.6396 87.1041 22.8078 89.8112 22.9547 92.6565C23.0431 94.3675 23.0758 96.0819 23.1887 97.7911C23.2974 99.4378 23.3917 101.093 23.6434 102.721C24.1676 106.11 24.4906 109.496 24.0745 112.922C23.7609 115.503 23.6064 118.112 23.1455 120.666C22.6347 123.496 21.9891 126.319 21.1555 129.071C20.3623 131.688 19.244 134.208 18.281 136.775C17.1974 139.664 16.1333 142.56 15.0504 145.449C13.5777 149.378 12.6086 153.44 12.532 157.625C12.4653 161.267 12.7596 164.918 12.947 168.562C13.0069 169.727 13.1976 170.891 13.3939 172.044C13.8115 174.497 14.2371 176.95 14.7288 179.39C14.9948 180.709 15.3955 182.002 15.7587 183.3C15.8034 183.459 15.9922 183.579 16.1142 183.717C16.1675 183.563 16.2441 183.413 16.27 183.255C16.3556 182.731 16.3734 182.192 16.5049 181.681C17.5226 177.73 18.6352 173.801 19.5674 169.83C20.2153 167.07 20.9933 164.304 20.7297 161.408C20.6549 160.586 20.5641 159.765 20.5098 158.942C20.2814 155.472 20.7752 152.071 21.6346 148.729C22.6404 144.816 23.5267 140.851 24.8766 137.055C26.3267 132.977 27.2121 128.865 27.1801 124.558C27.1555 121.251 27.0163 117.946 26.9748 114.639C26.9384 111.748 26.9672 108.856 26.9672 105.742ZM47.5734 63.3612C47.4988 63.3612 47.4071 63.3327 47.3524 63.3656C46.8654 63.6586 46.385 63.9624 45.9026 64.263C46.3337 64.43 46.7686 64.5879 47.1941 64.7681C47.3838 64.8484 47.5851 64.9425 47.7288 65.0835C48.8096 66.1448 49.9902 67.1304 50.9227 68.3106C52.3129 70.0702 53.6861 71.8813 54.7656 73.8363C55.7349 75.5917 56.2931 77.5728 57.0427 79.4503C57.7033 81.1049 58.4136 82.7406 59.0369 84.4089C59.8173 86.4976 60.527 88.6126 61.2852 90.7098C61.325 90.8199 61.5267 90.9119 61.6644 90.9313C61.7452 90.9426 61.8888 90.8126 61.9358 90.7138C62.3917 89.7536 62.7858 88.7614 63.2869 87.826C65.2716 84.1212 67.1582 80.3547 69.3375 76.7664C70.8883 74.2128 72.8008 71.8697 74.6497 69.5091C75.4605 68.474 76.4484 67.5458 77.4789 66.7228C78.4211 65.9704 78.5335 65.9905 77.4167 65.378C74.9417 64.0205 72.4639 62.6553 69.9091 61.4599C68.0305 60.5809 66.9289 59.1876 66.4045 57.272C65.7283 54.8016 65.1976 52.315 65.7123 49.7229C65.8284 49.1387 65.7333 48.5126 65.7353 47.9058C65.2193 48.1945 64.6935 48.4673 64.1891 48.775C62.8285 49.605 61.5738 50.828 59.7663 50.0059C59.1401 49.7211 58.5263 49.3925 57.9504 49.0173C56.6602 48.1767 56.6626 48.1571 56.234 49.6055C56.154 49.8755 56.1549 50.1753 56.1534 50.4616C56.146 51.9202 56.0658 53.3851 56.172 54.836C56.2956 56.5251 55.6031 57.8051 54.4643 58.9217C52.51 60.8377 50.1985 62.2038 47.5734 63.3612ZM20.7296 189.835C20.3885 191.51 20.0563 193.188 19.7041 194.861C19.0871 197.792 18.4262 200.715 17.8433 203.653C17.3453 206.163 16.9628 208.696 16.4714 211.208C15.8419 214.425 15.146 217.629 14.4953 220.842C14.1066 222.761 13.7301 224.683 13.3839 226.61C13.0605 228.41 12.8541 230.233 12.4684 232.019C12.0453 233.978 11.5215 235.918 10.956 237.842C10.4919 239.421 9.78 240.934 9.39972 242.529C8.93615 244.473 8.70117 246.472 8.37775 248.449C8.34196 248.668 8.37441 248.898 8.37521 249.123C8.57529 249.068 8.77274 248.984 8.97606 248.966C9.30606 248.937 9.69709 248.839 9.95929 248.972C10.3957 249.194 10.7585 249.567 11.1384 249.892C12.5804 251.128 14.1002 251.857 15.9397 250.682C16.0833 250.591 16.2428 250.517 16.4036 250.46C17.7691 249.972 19.0921 249.296 19.8152 248.053C20.2066 247.379 19.9941 246.358 20.0627 245.495C20.1309 244.636 20.165 243.77 20.292 242.919C20.8047 239.481 21.9845 236.175 22.1068 232.647C22.1991 229.982 22.6806 227.332 22.9503 224.672C23.1354 222.847 23.2795 221.016 23.3976 219.185C23.638 215.46 23.8398 211.733 24.0746 208.007C24.204 205.954 24.3158 203.898 24.5289 201.853C24.8535 198.74 25.4256 195.644 25.5875 192.524C25.7797 188.822 27.2633 185.512 28.3136 182.068C28.5258 181.372 28.4626 181.014 27.7542 180.823C26.8206 180.571 25.8688 180.363 24.9656 180.027C23.9945 179.666 23.4448 180.169 23.2268 180.921C22.38 183.84 21.6282 186.787 20.7296 189.835ZM39.6651 69.7015C40.8261 68.3453 41.5685 66.5995 43.3315 65.7976C43.491 65.7251 43.5625 65.4597 43.6749 65.2838C43.381 65.2702 43.0453 65.1561 42.7995 65.258C39.5386 66.6102 36.2866 67.9841 33.0454 69.3828C32.755 69.5081 32.354 69.8396 32.3496 70.0816C32.3334 70.9756 32.4135 71.8795 32.5459 72.7665C32.8889 75.0627 33.2579 77.3556 33.6562 79.6429C34.0583 81.9527 34.4919 84.2575 34.9423 86.5585C35.2991 88.3812 35.5862 90.1411 33.6177 91.339C33.0332 91.6948 33.0118 92.0079 33.8218 92.3084C36.2382 93.2051 38.5639 94.2902 40.2781 96.3364C40.86 97.0311 41.439 97.7372 42.0934 98.3606C43.6359 99.83 44.4189 101.754 45.2007 103.639C45.9091 105.347 46.3001 107.184 46.8917 108.943C47.7224 111.414 48.346 113.892 48.1553 116.547C48.0247 118.366 48.1036 120.202 48.1412 122.03C48.161 122.994 48.9312 123.056 49.6115 122.947C49.8935 122.901 50.3337 122.447 50.3225 122.195C50.2395 120.326 50.0074 118.465 49.925 116.596C49.8023 113.813 49.7728 111.026 49.6866 108.241C49.6286 106.369 49.5249 104.498 49.4729 102.625C49.4406 101.465 49.5611 100.294 49.4471 99.1434C49.2164 96.8142 48.8394 94.4996 48.5887 92.1719C48.4437 90.8266 48.493 89.4599 48.3391 88.116C48.0393 85.499 47.7581 82.8837 47.0663 80.3167C46.8031 79.3399 46.1998 78.896 45.4825 78.7463C41.8661 77.9916 38.6347 78.861 35.8362 81.2996C35.4978 81.5944 35.0824 81.8011 34.7027 82.0486C34.6489 81.5989 34.585 81.15 34.5476 80.6989C34.5366 80.5663 34.5828 80.4206 34.6327 80.2925C35.4162 78.2823 36.1007 76.2247 37.025 74.2809C37.7505 72.7553 38.774 71.3711 39.6651 69.7015ZM57.3752 123.205C59.738 123.414 62.0992 123.649 64.4659 123.795C64.7221 123.811 65.2057 123.338 65.2487 123.043C65.4099 121.938 65.4359 120.812 65.5053 119.693C65.5839 118.427 65.704 117.161 65.719 115.894C65.7517 113.139 65.796 110.381 65.7007 107.629C65.6534 106.265 65.3081 104.911 65.0968 103.553C64.7882 101.568 64.4786 99.5835 64.1697 97.5987C63.9793 96.3746 63.9425 95.1475 62.7587 94.2706C61.7908 93.5535 61.0275 92.565 60.1493 91.7221C58.9114 90.534 57.6927 89.3195 56.377 88.2225C55.946 87.8632 55.2383 87.8348 54.6572 87.655C54.5608 88.1711 54.3989 88.6846 54.3789 89.2036C54.2803 91.7663 54.2533 94.3321 54.1343 96.8937C54.0389 98.9474 53.8196 100.995 53.7106 103.048C53.6491 104.207 53.7252 105.372 53.6938 106.533C53.6404 108.504 53.4026 110.482 53.5116 112.443C53.6742 115.367 54.1139 118.274 54.3516 121.195C54.4933 122.936 54.6836 123.205 56.3731 123.205C56.6329 123.205 56.8927 123.205 57.3752 123.205ZM94.4663 110.858C94.6148 115.837 94.7176 120.817 94.9341 125.793C95.0223 127.819 95.3116 129.841 95.6147 131.849C95.684 132.308 96.0984 132.854 96.5096 133.095C97.4813 133.665 98.5458 134.078 99.5749 134.55C99.761 134.635 99.9573 134.698 100.149 134.772C100.185 134.564 100.281 134.347 100.248 134.152C100.126 133.43 99.8428 132.718 99.833 131.999C99.7873 128.652 99.726 125.301 99.8365 121.957C99.9536 118.414 100.282 114.878 100.464 111.336C100.507 110.484 100.296 109.621 100.265 108.761C100.172 106.198 100.111 103.635 100.035 101.071C99.9631 98.6562 99.8971 96.2407 99.8091 93.8261C99.7548 92.3367 99.7506 90.8377 99.5623 89.3635C99.4151 88.2108 99.3013 87.0359 98.4961 86.0251C97.1659 84.3553 96.421 82.2368 94.4767 81.0322C93.477 80.4129 93.1047 80.4964 92.6723 81.6C92.3103 82.5236 91.9217 83.4538 91.4058 84.2962C90.6924 85.4613 90.0408 86.6034 90.2296 88.0402C90.3273 88.7846 90.3458 89.5404 90.4638 90.281C90.7289 91.9441 90.9495 93.6211 91.3427 95.2554C91.891 97.5345 92.7179 99.7524 93.1747 102.046C93.7396 104.883 94.0474 107.77 94.4663 110.858ZM116.743 232.771C116.743 232.549 116.804 232.305 116.734 232.107C115.707 229.195 114.65 226.295 113.628 223.383C112.526 220.242 111.478 217.081 110.359 213.946C108.722 209.36 106.923 204.829 105.414 200.202C103.716 194.998 102.257 189.715 100.708 184.463C100.308 183.105 99.9601 181.732 99.5904 180.365C99.3412 179.443 98.8162 179.273 97.5592 179.713C96.808 179.975 96.5783 180.311 96.906 181.198C97.6802 183.293 98.3305 185.44 98.9062 187.599C99.852 191.146 100.66 194.73 101.599 198.278C102.437 201.445 103.421 204.574 104.253 207.742C104.852 210.027 105.316 212.348 105.825 214.656C106.282 216.731 106.723 218.809 107.163 220.888C107.567 222.798 107.863 224.737 108.381 226.615C109.102 229.233 109.927 231.826 110.815 234.393C111.655 236.82 112.681 239.183 113.54 241.605C114.298 243.742 114.908 245.931 115.668 248.068C115.76 248.326 116.435 248.598 116.744 248.513C117.393 248.336 117.983 247.933 118.59 247.61C120.005 246.856 120.514 245.894 120.304 244.356C120.257 244.012 120.149 243.677 120.087 243.335C119.767 241.576 119.62 239.763 119.092 238.069C118.535 236.282 117.616 234.607 116.743 232.771ZM46.7937 29.4346C46.8679 29.9231 46.9099 30.419 47.0216 30.8987C47.821 34.3321 49.461 37.3999 51.2972 40.3579C52.902 42.943 55.0513 45.0795 57.3338 47.0731C59.6201 49.0701 61.8558 48.7692 63.6192 47.5489C65.8763 45.9869 67.3009 43.6833 68.8391 41.4997C71.8984 37.1569 73.3523 32.2053 74.185 27.0346C74.2156 26.8448 74.1091 26.6329 74.0666 26.4313C73.8672 26.4876 73.5547 26.4839 73.4876 26.6102C73.1669 27.214 72.8324 27.8304 72.6483 28.4832C71.6661 31.9667 67.8596 33.1984 65.1196 31.5196C63.5995 30.5881 63.0263 29.1389 62.6167 27.5595C62.3697 26.6069 61.7047 26.2153 60.8162 26.2254C59.9345 26.2355 59.325 26.6349 59.025 27.5788C58.482 29.2869 57.5953 30.6987 55.7595 31.416C53.0295 32.4828 50.3811 31.0867 49.2271 28.8163C48.9827 28.3356 48.5214 27.965 48.16 27.5436C47.7788 27.9081 47.3808 28.2572 47.0253 28.6452C46.8959 28.7865 46.8679 29.0205 46.7937 29.4346ZM49.2441 318.867C49.3926 321.252 49.5413 323.637 49.6891 326.023C49.6937 326.096 49.6629 326.186 49.6946 326.242C49.7949 326.421 49.9169 326.587 50.0305 326.758C50.1397 326.618 50.2891 326.493 50.3509 326.335C50.6 325.696 50.7317 324.995 51.0685 324.409C53.3627 320.422 53.7719 315.987 54.1196 311.554C54.2709 309.626 54.1705 307.675 54.1353 305.736C54.1149 304.616 54.032 303.495 53.9152 302.381C53.6403 299.758 53.1592 297.146 53.0665 294.518C52.8751 289.091 52.8823 283.657 52.8092 278.226C52.8032 277.781 52.9023 277.312 52.7938 276.896C51.8143 273.135 51.6625 269.279 51.4929 265.433C51.3814 262.905 51.4622 260.367 51.4748 257.834C51.4852 255.755 51.3227 253.658 52.1161 251.651C52.1872 251.471 51.9819 251.005 51.8004 250.932C50.7667 250.519 49.5747 251.496 49.6831 252.576C49.9268 255.002 50.2227 257.428 50.3286 259.862C50.405 261.617 50.2251 263.384 50.132 265.144C49.9193 269.167 49.7195 273.192 49.4494 277.211C49.3647 278.471 49.0644 279.717 48.8768 280.971C48.4746 283.66 47.7805 286.349 47.7614 289.042C47.7378 292.364 48.3022 295.688 48.5691 299.015C48.8232 302.183 49.1135 305.352 49.219 308.525C49.3309 311.895 49.2441 315.271 49.2441 318.867ZM78.6497 105.964C78.7982 108.312 78.9449 110.661 79.096 113.009C79.1656 114.091 79.2362 115.172 79.3205 116.253C79.3818 117.039 79.7113 117.904 79.4843 118.589C79.1302 119.659 79.5841 120.415 79.9937 121.239C80.3618 121.979 80.7577 122.711 81.2096 123.402C81.4372 123.75 81.8162 124 82.1267 124.294C82.2284 123.818 82.3542 123.346 82.4171 122.865C82.4354 122.725 82.2959 122.545 82.1924 122.411C81.4074 121.398 81.843 120.648 82.5769 119.795C83.4418 118.79 84.3036 117.707 84.831 116.51C85.2568 115.544 85.2364 114.363 85.3229 113.271C85.5735 110.103 85.7436 106.928 86.0153 103.762C86.1575 102.105 86.4805 100.464 86.6582 98.8086C86.7895 97.585 86.8932 96.3489 86.8699 95.121C86.8488 94.0113 86.1494 93.308 85.3948 93.6505C83.5577 94.4842 81.6506 94.2675 79.7538 94.2706C79.087 94.2717 78.8684 94.4889 78.8595 95.1565C78.8128 98.6852 78.7239 102.213 78.6497 105.964ZM63.2786 90.3912C63.0558 90.892 62.7939 91.3803 62.6259 91.8988C62.5344 92.1814 62.4664 92.643 62.6198 92.8061C63.805 94.0655 65.1655 95.1766 66.2425 96.5173C67.7354 98.3756 69.1739 100.31 70.3617 102.37C71.3284 104.046 71.8797 105.96 72.6486 107.754C72.7637 108.022 73.0623 108.212 73.2759 108.438C73.3115 108.159 73.3641 107.881 73.3792 107.6C73.4153 106.929 73.3818 106.25 73.4698 105.587C73.6829 103.979 74.0476 102.386 74.167 100.773C74.2899 99.1144 74.2125 97.4393 74.1813 95.7721C74.1736 95.3651 74.1387 94.8191 73.8859 94.5801C72.751 93.5071 73.3707 92.137 73.2617 90.9375C73.1693 89.9208 73.0571 88.6664 74.1804 87.8899C74.2846 87.8179 74.2515 87.4465 74.1855 87.2457C73.4573 85.028 72.6964 82.821 71.9773 80.6004C71.8014 80.0572 71.5177 79.8309 71.0577 80.193C69.7676 81.2084 68.2258 82.067 67.3114 83.3599C65.7878 85.5139 64.6755 87.958 63.2786 90.3912ZM41.2244 105.519C40.6304 103.689 40.1066 101.832 39.4191 100.038C38.9057 98.6974 39.1193 96.9969 37.7492 96.071C36.3156 95.1022 34.7931 94.2633 33.2896 93.4022C33.2052 93.3539 32.7812 93.6252 32.7849 93.739C32.8093 94.4884 32.8541 95.2453 32.992 95.9811C33.4098 98.2114 33.8675 100.434 34.3202 102.658C34.7584 104.81 35.2553 106.952 35.6357 109.115C35.8224 110.176 35.7271 111.286 35.8925 112.353C36.3713 115.443 36.9091 118.525 37.4529 121.604C37.4982 121.861 37.7419 122.265 37.9294 122.287C39.6566 122.484 41.3922 122.608 43.1245 122.763C43.7734 122.82 44.2185 122.693 44.1251 121.891C44.0298 121.071 44.0161 120.241 43.8892 119.427C43.5425 117.205 43.2033 114.979 42.7707 112.772C42.3092 110.418 41.7442 108.084 41.2244 105.519ZM83.8848 80.0463C83.9962 81.1497 84.1195 82.2521 84.2109 83.3571C84.2351 83.6501 84.1611 83.9512 84.1323 84.2486C83.8525 84.134 83.5268 84.0767 83.3001 83.8957C81.3014 82.3003 79.2227 80.8538 76.6935 80.2158C76.4545 80.1555 76.0339 80.1082 75.9667 80.2184C75.8213 80.4567 75.7553 80.8253 75.8241 81.0986C76.2963 82.9748 76.7703 84.8529 77.3402 86.7007C77.4955 87.2043 77.9352 87.9432 78.3234 87.996C79.9068 88.2118 81.5206 88.212 83.1238 88.2751C84.4562 88.3275 85.8016 88.2636 87.1175 88.4337C87.8315 88.526 88.1936 88.3841 88.4544 87.7663C88.8143 86.914 89.1229 86.0294 89.5803 85.2312C90.517 83.5965 90.8809 81.8684 90.6751 80.0111C90.6289 79.5938 90.5375 79.1809 90.4553 78.7683C90.0122 76.5421 89.6027 74.308 89.0877 72.0985C88.9873 71.6679 88.5458 71.1857 88.1349 70.9801C86.0788 69.9515 83.9807 69.0065 81.8966 68.0339C81.6879 67.9365 81.4736 67.8512 81.2619 67.7603C81.2853 68.0396 81.2348 68.3529 81.3449 68.5926C81.8322 69.653 82.459 70.6575 82.8637 71.7459C83.8465 74.3886 83.7734 77.1709 83.8848 80.0463ZM105.159 154.24C105.234 153.344 105.354 152.449 105.356 151.553C105.357 151.249 105.059 150.945 104.898 150.642C104.762 150.871 104.637 151.107 104.489 151.328C103.868 152.258 103.413 153.394 102.583 154.07C100.278 155.945 97.5764 156.586 94.6202 155.963C94.4836 155.934 94.3164 156.051 94.1635 156.1C94.2258 156.257 94.2621 156.431 94.3546 156.568C94.9044 157.381 95.6788 158.113 95.9809 159.006C96.5782 160.771 96.9348 162.62 97.3456 164.445C97.4189 164.77 97.3448 165.175 97.2138 165.491C96.9179 166.206 97.0969 166.841 97.2835 167.546C97.4917 168.333 97.7311 168.498 98.5407 168.226C100.206 167.667 101.301 168.485 101.379 170.187C101.39 170.423 101.483 170.659 101.562 170.887C101.634 171.091 101.74 171.284 101.831 171.481C101.975 171.264 102.195 171.064 102.251 170.826C102.689 168.965 103.006 167.071 103.529 165.236C104.535 161.707 105.259 158.151 105.159 154.24ZM30.1973 142.56C30.5315 141.772 30.8955 140.994 31.1946 140.193C32.3687 137.045 33.5217 133.89 34.684 130.738C35.5279 128.45 36.127 126.154 36.1748 123.653C36.2109 121.76 35.9956 119.962 35.6787 118.123C35.2161 115.438 34.9174 112.725 34.5387 110.026C34.4116 109.119 34.2932 108.209 34.1002 107.315C33.8371 106.097 33.4415 104.905 33.2209 103.681C32.9323 102.08 32.767 100.457 32.5261 98.847C32.4976 98.6566 32.3267 98.4874 32.2219 98.3084C32.1039 98.4319 31.8971 98.5458 31.8824 98.6805C31.781 99.6105 31.6104 100.551 31.6659 101.477C31.8316 104.242 32.1014 107.001 32.3091 109.764C32.4097 111.103 32.4275 112.448 32.5434 113.785C32.8188 116.963 33.2115 120.133 33.3957 123.316C33.4985 125.091 33.3938 126.899 33.173 128.667C32.9444 130.495 32.5685 132.322 32.0654 134.096C31.3536 136.605 30.4516 139.061 29.6691 141.551C29.5526 141.922 29.6448 142.358 29.6404 142.764C29.7889 142.733 29.9374 142.702 30.1973 142.56ZM86.6694 112.861C86.5951 113.2 86.4984 113.537 86.451 113.88C86.3295 114.759 86.236 115.642 86.1202 116.522C85.8925 118.253 84.8343 119.472 83.6106 120.597C83.2853 120.896 82.8389 121.136 83.2921 121.758C83.8826 122.569 83.8246 123.415 83.413 124.403C82.7671 125.955 83.033 126.742 84.0218 127.335C84.4012 127.563 84.8486 127.676 85.2324 127.897C86.6105 128.693 87.9717 129.518 89.3487 130.316C89.4818 130.394 89.6801 130.359 89.8482 130.376C89.8282 130.244 89.8054 130.112 89.7886 129.98C89.5652 128.22 89.3253 126.463 89.1251 124.701C88.9514 123.173 88.8443 121.637 88.6694 120.109C88.3907 117.675 88.0598 115.246 87.7903 112.811C87.605 111.136 87.4886 109.453 87.3329 107.775C87.3213 107.65 87.2408 107.531 87.1923 107.41C87.0922 107.517 86.9462 107.608 86.9014 107.734C86.798 108.027 86.6849 108.335 86.6795 108.639C86.656 109.972 86.6694 111.305 86.6694 112.861ZM99.59 148.901C100.035 148.382 100.729 147.928 100.884 147.335C101.854 143.627 100.513 140.058 96.9317 138.021C96.0123 137.499 95.5894 137.758 95.5834 138.823C95.5722 140.796 95.4939 142.773 95.6061 144.739C95.7047 146.465 95.9813 148.187 96.2794 149.894C96.3549 150.326 96.7466 150.851 97.3967 150.421C98.0954 149.958 98.785 149.482 99.59 148.901ZM38.4398 180.157C39.9667 180.232 41.4934 180.311 43.021 180.362C43.086 180.364 43.2169 180.107 43.2209 179.968C43.3063 176.999 43.3917 174.03 43.4248 171.06C43.4273 170.832 43.0618 170.425 42.8328 170.398C41.647 170.261 40.4473 170.149 39.2587 170.194C38.9374 170.206 38.404 170.773 38.371 171.124C38.2594 172.311 38.3284 173.515 38.3284 174.713C38.3284 176.491 38.3284 178.268 38.4398 180.157ZM47.6847 66.587C47.5799 66.4823 47.4898 66.3536 47.3668 66.2783C47.1697 66.1576 46.9507 66.0724 46.741 65.9721C46.7848 66.2033 46.7846 66.4547 46.8801 66.6621C47.2812 67.5336 47.7703 68.3689 48.1186 69.2598C48.9911 71.4914 49.9116 73.7135 50.6086 76.0015C51.1943 77.9242 51.5295 79.9273 51.9062 81.9079C52.2431 83.6792 53.7687 84.4972 54.804 85.7099C54.9556 85.5569 55.2431 85.3981 55.2369 85.2517C55.1962 84.2847 55.1505 83.3111 54.997 82.3572C54.6745 80.3532 54.3414 78.3475 53.9008 76.3674C53.6405 75.1977 53.8073 73.9608 52.9246 72.8754C51.2357 70.7987 49.8894 68.4426 47.6847 66.587ZM87.5605 146.231C88.5262 147.195 89.4875 148.164 90.4638 149.118C90.5765 149.228 90.7724 149.253 90.9298 149.318C90.9549 149.139 91.0507 148.932 90.9928 148.786C90.7661 148.214 90.435 147.679 90.2425 147.098C88.6133 142.175 86.7124 137.369 84.2115 132.815C84.0244 132.474 83.7317 132.191 83.4881 131.882C83.3604 132.301 83.2214 132.717 83.1117 133.141C83.0771 133.275 83.1078 133.431 83.1307 133.573C83.3421 134.892 83.5605 136.21 83.7729 137.529C84.0302 139.127 84.0031 140.845 84.6185 142.29C85.2235 143.71 86.479 144.854 87.5605 146.231ZM77.6472 121.648C78.0903 121.239 78.5121 120.86 77.9935 120.184C77.6399 119.723 77.4763 119.108 77.0975 118.676C75.4907 116.845 74.4273 114.714 73.518 112.486C73.4234 112.254 73.2184 112.067 73.0645 111.859C72.9213 112.115 72.7482 112.359 72.6461 112.63C72.585 112.792 72.643 112.996 72.6337 113.181C72.4869 116.082 72.3388 118.983 72.1866 121.884C72.1794 122.021 72.1404 122.159 72.1002 122.291C71.8829 123.008 71.7299 123.733 72.466 124.244C72.921 124.561 75.071 124.263 75.3814 123.914C76.0573 123.154 76.7428 122.403 77.6472 121.648ZM45.3457 377.043C45.0121 377.043 44.6786 377.043 44.345 377.043C42.924 377.043 41.5024 377.07 40.0823 377.036C38.2523 376.991 36.4368 376.991 34.7855 377.941C34.5961 378.05 34.4726 378.273 34.3186 378.444C34.4364 378.496 34.5541 378.593 34.6722 378.593C36.5623 378.603 38.4525 378.596 40.3426 378.601C42.316 378.605 44.2936 378.538 46.2614 378.647C48.5126 378.771 50.754 379.066 53.0028 379.248C53.2237 379.266 53.6317 379.046 53.6702 378.874C53.817 378.218 53.8959 377.536 53.8965 376.863C53.8966 376.627 53.634 376.222 53.4319 376.18C52.022 375.887 50.6272 375.408 49.1447 375.901C47.9352 376.304 46.6877 376.592 45.3457 377.043ZM41.67 72.8161C42.2701 74.1569 42.8419 75.5117 43.4941 76.8267C43.6238 77.0882 44.042 77.2528 44.3614 77.3644C44.9134 77.5572 45.5002 77.6483 46.0582 77.8265C47.5595 78.3061 47.5553 78.3157 47.2395 76.7366C46.7021 74.0496 45.5611 71.6386 43.8881 69.4769C43.4716 68.9388 43.0034 68.4405 42.5589 67.9239C42.1141 68.516 41.641 69.0892 41.2299 69.7037C40.1566 71.3084 40.1674 71.3156 41.4801 72.6265C41.5063 72.6526 41.5324 72.6787 41.67 72.8161ZM66.1746 136.665C66.1165 136.331 66.0585 135.997 66.0004 135.664C65.6872 135.903 65.3629 136.13 65.0647 136.387C64.8741 136.552 64.7317 136.771 64.5512 136.948C63.1276 138.349 61.7636 139.825 61.1246 141.745C60.6017 143.316 60.3072 144.964 59.9555 146.587C59.905 146.82 60.0408 147.269 60.2003 147.329C60.4197 147.413 60.7722 147.274 61.0185 147.14C62.7609 146.194 63.6256 144.434 64.844 142.999C65.7793 141.897 66.0554 140.649 65.9732 139.236C65.928 138.459 66.1003 137.67 66.1746 136.665ZM77.6472 68.033C76.9655 68.788 76.2418 69.5112 75.6296 70.3187C75.4622 70.5394 75.4876 71.1218 75.6656 71.3538C77.093 73.2145 78.1978 75.2574 78.8249 77.4931C79.1833 78.7709 79.5035 79.8249 80.9189 80.3074C81.5308 80.516 81.5236 80.4604 81.5585 79.9097C81.7137 77.4551 81.0494 75.155 80.2641 72.8835C79.6826 71.2015 79.0224 69.5463 78.3643 67.8922C78.3402 67.8316 77.9684 67.9088 77.6472 68.033ZM91.3475 164.696C90.6792 162.938 89.9785 161.192 89.3564 159.418C89.0473 158.536 88.4538 158.152 87.629 158.384C86.8636 158.6 85.7835 158.613 85.9893 159.97C86.3067 162.063 86.1509 164.231 86.9213 166.246C87.0753 166.648 87.5352 167.149 87.9132 167.205C88.5972 167.306 89.3277 167.12 90.0351 167.026C90.4487 166.972 90.9081 166.958 91.2547 166.763C92.1832 166.239 91.6991 165.495 91.3475 164.696ZM43.8977 375.597C43.4738 375.115 43.1252 374.329 42.6132 374.202C40.181 373.6 38.2571 372.102 36.2471 370.779C35.4848 370.278 35.3932 370.603 35.2109 371.163C35.147 371.359 35.1133 371.566 35.0395 371.759C34.3894 373.452 33.7209 375.138 33.0951 376.84C33.0179 377.05 33.159 377.34 33.199 377.593C33.4042 377.54 33.6919 377.556 33.8023 377.424C35.3448 375.581 37.4972 375.742 39.5494 375.736C40.8221 375.732 42.0943 376.018 43.3703 376.135C43.535 376.15 43.7214 375.93 43.8977 375.597ZM29.7518 175.931C29.7147 176.989 29.62 178.05 29.6791 179.103C29.6948 179.382 30.1532 179.809 30.4623 179.864C31.1644 179.988 31.902 179.958 32.6211 179.917C32.8957 179.902 33.3914 179.691 33.3934 179.563C33.4379 176.7 33.4506 173.836 33.3911 170.974C33.3853 170.692 32.8744 170.197 32.5936 170.194C32.0573 170.188 31.2229 169.71 30.9945 170.62C30.5628 172.339 30.2345 174.085 29.7518 175.931ZM84.6645 149.568C84.9615 151.929 85.2309 154.294 85.5738 156.648C85.6661 157.282 86.1521 157.587 86.8491 157.472C87.4816 157.368 88.1231 157.319 88.7603 157.243C89.9983 157.096 91.239 156.965 92.4685 156.766C92.5771 156.748 92.7515 156.174 92.6513 156.038C92.4592 155.778 92.0991 155.634 91.7953 155.466C91.0718 155.065 90.1885 154.825 89.6414 154.258C88.1646 152.729 86.8262 151.066 85.4412 149.449C85.1324 149.088 85.0031 149.055 84.6645 149.568ZM91.4589 171.704C90.8191 171.792 90.5461 172.14 90.6786 172.787C91.0914 174.801 91.5115 176.814 91.9066 178.832C92.0369 179.497 92.3297 179.847 93.0666 179.72C93.6971 179.611 94.341 179.487 94.9747 179.506C96.2489 179.546 95.8406 178.92 95.5904 178.229C94.8198 176.103 94.0798 173.965 93.3632 171.819C93.1848 171.285 92.9591 171.105 92.4392 171.386C92.1993 171.515 91.9349 171.599 91.4589 171.704ZM79.8749 89.3901C78.8303 89.3159 77.7868 89.2095 76.7408 89.174C74.2245 89.0887 74.4167 89.1621 74.4044 91.5053C74.3997 92.3979 74.7385 92.7364 75.6335 92.7435C76.9753 92.7543 78.32 92.8349 79.6566 92.9593C81.5257 93.1332 81.2461 93.1036 81.6274 91.3054C81.9748 89.6663 81.1066 89.6223 79.8749 89.3901ZM87.3377 170.48C87.2692 171.357 87.5395 171.715 88.4119 171.195C88.5553 171.109 88.7352 171.082 88.9008 171.037C91.0975 170.443 93.2914 169.837 95.4931 169.261C96.7167 168.942 96.1162 168.064 95.9865 167.458C95.8698 166.913 95.3813 166.695 94.7064 166.879C92.9696 167.352 91.2255 167.891 89.4485 168.099C87.6605 168.307 87.3377 168.449 87.3377 170.48ZM62.6103 341.336C63.2993 340.945 63.9613 340.49 64.6854 340.181C65.321 339.909 65.5717 339.522 65.5096 338.86C65.4223 337.931 65.3758 336.998 65.2703 336.071C65.2452 335.851 65.0545 335.65 64.9399 335.441C64.7574 335.583 64.5196 335.688 64.401 335.871C63.1751 337.763 61.7335 339.391 59.5369 340.214C59.2314 340.329 58.8307 340.827 58.8686 341.091C58.9585 341.718 59.2788 342.314 59.5376 342.909C59.5489 342.935 59.8905 342.857 60.0497 342.773C60.8712 342.341 61.6835 341.891 62.6103 341.336ZM33.873 379.601C33.9813 379.786 34.0731 380.12 34.2005 380.135C35.8408 380.317 37.4882 380.435 39.1295 380.61C40.0048 380.703 40.8684 380.905 41.7436 381C42.8533 381.121 43.9681 381.225 45.083 381.259C46.5041 381.301 47.9283 381.293 49.3497 381.256C50.6911 381.221 52.0315 381.13 53.3702 381.034C53.5554 381.021 53.7281 380.835 53.9066 380.729C53.7058 380.612 53.5109 380.407 53.3033 380.393C49.6519 380.152 46.0006 379.899 42.3456 379.724C39.5612 379.591 36.7717 379.564 33.873 379.601ZM90.0109 136.22C89.9909 135.305 90.2639 134.288 89.0081 133.871C88.1323 133.58 87.2889 133.193 86.4228 132.871C86.2945 132.824 86.0299 132.85 85.9887 132.927C85.9225 133.051 85.9392 133.273 86.0097 133.407C86.3622 134.077 86.8312 134.699 87.0988 135.398C87.9665 137.668 88.7516 139.969 89.6041 142.244C89.7142 142.538 90.0338 142.753 90.2564 143.005C90.3231 142.68 90.4652 142.35 90.4441 142.031C90.3209 140.166 90.1594 138.305 90.0109 136.22ZM100.704 177.377C101.966 176.813 102.206 176.537 101.821 175.179C101.361 173.557 100.932 171.927 100.479 170.303C100.18 169.232 99.2781 169.397 98.5423 169.505C97.6465 169.637 97.9715 170.479 98.0747 170.928C98.5128 172.838 99.0373 174.731 99.6218 176.602C99.7346 176.963 100.258 177.196 100.704 177.377ZM69.2934 79.9351C70.6984 78.7116 72.3787 78.5756 74.1295 78.7092C74.3508 78.7261 74.622 78.7887 74.7837 78.6896C74.9418 78.5926 75.126 78.2394 75.0645 78.1296C74.3539 76.8624 73.6076 75.6146 72.8401 74.3807C72.7721 74.2714 72.364 74.2107 72.3225 74.2709C71.0935 76.054 69.8844 77.8509 68.6975 79.6622C68.6093 79.7968 68.7102 80.0549 68.7232 80.2555C68.8761 80.1858 69.0291 80.1161 69.2934 79.9351ZM48.0189 375.04C49.4795 374.411 50.9957 374.408 52.546 374.568C52.8373 374.598 53.4217 374.285 53.4305 374.108C53.4618 373.484 53.3141 372.848 53.1927 372.224C53.1822 372.171 52.8576 372.132 52.6919 372.161C51.0698 372.445 49.4526 372.757 47.8292 373.032C47.0817 373.159 46.0963 374.483 46.3739 375.132C46.4533 375.318 46.8515 375.475 47.0887 375.457C47.3339 375.437 47.5611 375.189 48.0189 375.04ZM55.8158 345.897C55.3718 345.897 54.9231 345.858 54.4851 345.91C54.1502 345.949 53.8289 346.103 53.5016 346.206C53.8118 346.4 54.104 346.638 54.438 346.772C54.6921 346.875 55.0255 346.934 55.2787 346.859C56.793 346.415 58.3326 346.02 59.7904 345.428C61.6368 344.679 63.5182 343.917 64.7944 342.253C64.9082 342.104 64.885 341.851 64.9254 341.646C64.7205 341.644 64.4759 341.568 64.3172 341.653C63.4358 342.123 62.6005 342.684 61.7026 343.117C59.7927 344.038 57.8541 344.9 55.8158 345.897ZM87.5604 172.927C87.4119 173.199 87.121 173.48 87.1385 173.74C87.2387 175.236 87.3663 176.734 87.5768 178.218C87.7125 179.174 87.9849 180.114 88.247 181.047C88.2982 181.229 88.5843 181.346 88.7621 181.492C88.8814 181.287 89.0633 181.094 89.1041 180.874C89.1558 180.596 89.1191 180.292 89.0741 180.006C88.9541 179.246 88.8261 178.485 88.6708 177.731C88.3483 176.165 88.006 174.603 87.5604 172.927ZM56.8183 344.451C57.8002 343.889 57.0325 343.412 56.6919 343.015C55.9385 342.137 54.8708 342.35 53.8769 342.335C53.1636 342.323 52.7581 342.638 52.8173 343.367C52.8712 344.032 53.0238 344.625 53.9355 344.573C54.8566 344.522 55.7829 344.562 56.8183 344.451ZM80.2091 135.33C80.3576 135.674 80.4847 136.03 80.6636 136.357C80.7542 136.523 80.9385 136.638 81.0804 136.776C81.1612 136.614 81.2886 136.458 81.3119 136.288C81.346 136.04 81.3405 135.774 81.2907 135.528C81.0915 134.544 80.8638 133.567 80.6559 132.585C80.4174 131.459 80.4387 130.215 79.2743 129.512C79.0955 129.404 78.869 129.374 78.6646 129.308C78.6363 129.513 78.5366 129.738 78.5909 129.917C79.1155 131.652 79.666 133.379 80.2091 135.33ZM36.5463 79.4902C36.6724 79.4383 36.8337 79.4197 36.9192 79.3295C37.6509 78.5568 38.4422 77.9355 39.6033 78.0072C39.6561 78.0105 39.8944 77.3796 39.786 77.2073C39.3558 76.5235 38.8214 75.9051 38.327 75.2614C37.9749 74.803 37.8342 74.9815 37.6493 75.4232C37.1758 76.5546 36.6211 77.6526 36.1677 78.7913C36.087 78.9939 36.3374 79.328 36.5463 79.4902ZM95.8029 77.7104C96.4308 78.6341 97.047 79.5661 97.6941 80.4761C97.876 80.7318 98.1488 80.9229 98.3799 81.1436C98.3922 80.7953 98.5275 80.3903 98.397 80.1077C97.5649 78.3052 96.6802 76.5266 95.791 74.7511C95.7248 74.6189 95.4944 74.5544 95.3268 74.5007C95.2974 74.4913 95.1212 74.7204 95.1466 74.7923C95.4682 75.7024 94.706 76.8235 95.8029 77.7104ZM25.185 171.815C25.0016 172.517 24.7882 173.213 24.641 173.923C24.357 175.292 24.0821 176.665 23.8706 178.047C23.824 178.351 24.0579 178.698 24.1627 179.025C24.355 178.71 24.656 178.416 24.7217 178.077C25.1284 175.977 25.4834 173.867 25.8515 171.759C25.8932 171.521 25.9092 171.277 25.9371 171.036C25.6864 171.222 25.4357 171.407 25.185 171.815ZM71.9666 132.215C72.4588 131.353 72.9647 130.498 73.4342 129.624C73.5666 129.377 73.5923 129.074 73.6669 128.797C73.3414 128.879 72.9439 128.871 72.7033 129.062C71.7969 129.777 71.1757 130.718 70.9992 131.869C70.9255 132.35 71.0661 132.863 71.1092 133.361C71.395 133.053 71.6808 132.746 71.9666 132.215ZM59.6029 88.7226C59.1945 87.6762 58.8053 86.6216 58.3678 85.5874C58.2036 85.1992 57.9273 84.8582 57.7021 84.4957C57.6302 84.8877 57.5543 85.279 57.4893 85.6721C57.4715 85.7796 57.5064 85.8969 57.4836 86.0025C57.1373 87.6067 58.5501 88.1699 59.3383 89.0978C59.3472 89.1084 59.5839 88.9261 59.6029 88.7226ZM79.6521 124.54C80.0854 124.911 80.5117 125.29 80.9576 125.646C81.0525 125.721 81.2186 125.707 81.3519 125.735C81.3514 125.605 81.4019 125.442 81.3422 125.351C80.8655 124.629 80.3811 123.911 79.864 123.217C79.7784 123.102 79.4675 123.025 79.359 123.091C79.2341 123.167 79.1369 123.441 79.1728 123.595C79.2406 123.886 79.4123 124.152 79.6521 124.54ZM73.3032 39.2233C73.3775 38.9259 73.5475 38.6141 73.5054 38.3342C73.4255 37.8028 73.2258 37.289 73.0638 36.7716C73.0592 36.7569 72.8567 36.769 72.8498 36.7954C72.6951 37.3894 72.4647 37.9859 72.4558 38.585C72.4521 38.8311 72.932 39.0844 73.3032 39.2233ZM74.1943 39.2233C73.6117 39.8089 73.5884 40.4752 74.095 41.0658C74.2161 41.207 74.7444 40.9998 75.0854 40.9529C74.8682 40.3212 75.2016 39.457 74.1943 39.2233ZM63.5014 12.527C63.2754 12.3754 63.0687 12.1672 62.8199 12.0822C61.7833 11.7282 60.7365 11.4024 59.6853 11.0942C59.5741 11.0617 59.4089 11.2133 59.2688 11.2795C59.3929 11.3616 59.5064 11.4788 59.6429 11.5204C60.8897 11.9005 62.1404 12.2674 63.5014 12.527Z" fill="#D90A86"/>
<path d="M35.7109 280.213C34.8162 279.097 33.9597 278.049 33.1536 276.965C33.0024 276.761 33.0524 276.409 33.0096 276.125C33.3153 276.227 33.7193 276.238 33.9095 276.445C34.6597 277.262 35.4846 278.06 36.0187 279.013C36.8996 280.584 39.8913 280.42 40.5601 278.618C41.5847 275.857 42.6803 273.122 43.6539 270.343C44.0758 269.139 44.2429 267.848 44.5825 266.612C44.6791 266.261 44.9753 265.964 45.18 265.643C45.2724 266.012 45.5198 266.423 45.4328 266.744C44.6576 269.602 43.8814 272.464 42.9823 275.285C42.5272 276.713 41.9603 278.145 41.1916 279.425C40.01 281.391 37.3391 281.831 35.7109 280.213Z" fill="#D90A86"/>
<path d="M59.8814 263.416C60.2999 263.834 60.6122 264.276 61.0352 264.544C62.2245 265.296 62.8588 264.973 63.5074 264.086C64.7598 262.374 66.0346 260.678 67.3353 259.003C67.5099 258.778 67.8885 258.711 68.1726 258.571C68.1159 258.929 68.1712 259.365 67.9838 259.631C66.9471 261.104 65.851 262.534 64.7757 263.98C64.5649 264.263 64.3728 264.562 64.1431 264.828C62.8938 266.279 61.8752 266.503 60.3752 265.339C58.62 263.976 57.141 262.321 56.3904 260.162C56.2895 259.871 56.4275 259.498 56.4548 259.163C56.7245 259.396 57.0441 259.592 57.2551 259.869C58.1298 261.02 58.9717 262.195 59.8814 263.416Z" fill="#D90A86"/>
<path d="M58.2106 43.5058C57.6128 43.0572 57.0721 42.6623 56.528 42.2721C56.3368 42.135 56.1376 42.0091 55.942 41.8781C56.127 41.6977 56.2879 41.3993 56.5008 41.3561C57.7506 41.1025 58.8204 39.8794 60.2769 40.6489C60.4251 40.7272 60.7346 40.5437 60.9512 40.4428C61.7953 40.0496 62.4928 40.2057 63.1642 40.8625C63.5912 41.2801 64.0841 41.5403 64.7839 41.1571C65.0907 40.989 65.6535 41.2871 66.1001 41.3736C65.7651 41.6094 65.4614 41.9514 65.0892 42.0606C64.0657 42.3609 63.1926 42.736 62.5298 43.6939C61.893 44.6143 59.2932 44.4365 58.2106 43.5058ZM62.2761 42.6715C61.3168 42.6715 60.3569 42.6562 59.3984 42.6851C59.2155 42.6906 59.0379 42.871 58.8579 42.9707C59.0052 43.0934 59.1492 43.3175 59.3006 43.3225C60.2711 43.3547 61.2437 43.3495 62.2142 43.3151C62.2782 43.3128 62.33 42.9682 62.2761 42.6715ZM60.3826 41.448C60.9848 41.5592 61.5844 41.6909 62.1911 41.7649C62.3174 41.7804 62.4699 41.5824 62.6103 41.4827C62.4567 41.3599 62.298 41.1271 62.1503 41.1339C61.5962 41.1591 61.0458 41.2626 60.3826 41.448ZM59.8257 41.3367C59.6037 41.3367 59.3734 41.3 59.162 41.3474C58.9644 41.3917 58.7868 41.5253 58.6005 41.6195C58.8333 41.7477 59.088 42.0049 59.2934 41.9703C59.5306 41.9304 59.7244 41.6334 59.8257 41.3367Z" fill="#D90A86"/>
</svg>
